# File created by Blade
# Date/Time:  Thu Sep 25 15:55:53 2014
# Frame Rate: 120.000 fps
#------------------------------------------------------
:FULLY-SPECIFIED
:DEGREES
283
root -2.858278 33.754670 1.495551 -2.844951 2.375677 26.427701
Spine 6.600852 19.001559 -26.145614
Head -13.702872 -21.414053 6.000164
LeftShoulder -6.016283 21.644300 18.618038
LeftArm 30.547445 3.385383 -60.719215
LeftForeArm 21.922869 -0.000000 29.970852
LeftHand -27.862021 -0.000000 -0.389671
LeftHandThumb1 -26.253704 0.000000 33.147579
RightShoulder -9.295279 16.461511 -25.869602
RightArm 7.468007 3.013568 32.118931
RightForeArm -23.657200 -0.000000 52.714452
RightHand -1.926535 -0.000000 -1.150897
RightHandThumb1 -24.326973 -0.000000 -32.862282
LeftUpLeg -92.926722 20.699266 -3.529672
LeftLeg 5.814290 -0.000000 -0.000000
LeftFoot 36.361446 34.004255 -10.892132
LeftToeBase 19.415906 -0.000000 -0.000000
RightUpLeg -3.998676 -9.367636 -23.845339
RightLeg 24.171174 -0.000000 -0.000000
RightFoot -16.361434 -10.510107 -11.589275
RightToeBase -4.841609 -0.000000 0.000000
284
root -2.921019 33.747247 1.467461 -2.263492 2.278863 25.640514
Spine 5.716571 18.768165 -25.524912
Head -13.435734 -21.411680 5.837121
LeftShoulder -6.504108 21.736733 18.529738
LeftArm 29.822968 4.425561 -61.412229
LeftForeArm 22.266391 -0.000000 30.273377
LeftHand -27.946163 0.000000 -0.549377
LeftHandThumb1 -26.253704 0.000000 33.147579
RightShoulder -9.548014 16.376695 -26.147143
RightArm 6.666338 2.434837 31.921893
RightForeArm -23.455281 -0.000000 53.248024
RightHand -2.013366 -0.000000 -1.217244
RightHandThumb1 -24.326973 -0.000000 -32.862282
LeftUpLeg -90.515585 19.997793 -2.981480
LeftLeg 5.727456 -0.000000 -0.000000
LeftFoot 35.787318 33.806424 -11.348234
LeftToeBase 19.729274 -0.000000 -0.000000
RightUpLeg -4.459396 -9.297720 -22.748596
RightLeg 23.711404 -0.000000 -0.000000
RightFoot -15.926629 -10.808403 -11.781287
RightToeBase -4.762110 -0.000000 0.000000
285
root -2.980020 33.737666 1.449679 -1.748703 2.223795 24.916934
Spine 4.923699 18.531215 -24.996640
Head -13.245569 -21.423024 5.826847
LeftShoulder -6.951268 22.124949 18.589055
LeftArm 29.460971 5.026010 -62.425329
LeftForeArm 22.794463 0.000000 30.232337
LeftHand -27.646344 -0.000000 -0.985528
LeftHandThumb1 -26.253704 0.000000 33.147579
RightShoulder -9.804508 16.086572 -26.328778
RightArm 6.063528 2.182732 31.758597
RightForeArm -23.214011 0.000000 53.777772
RightHand -1.997342 0.000000 -1.413591
RightHandThumb1 -24.326973 -0.000000 -32.862282
LeftUpLeg -88.009153 19.236196 -2.424582
LeftLeg 5.627136 -0.000000 -0.000000
LeftFoot 35.255981 33.396970 -11.603735
LeftToeBase 19.707769 -0.000000 -0.000000
RightUpLeg -4.837847 -9.190324 -21.743122
RightLeg 23.289508 -0.000000 -0.000000
RightFoot -15.522508 -11.153895 -11.918676
RightToeBase -4.664967 -0.000000 0.000000
286
root -3.038486 33.725758 1.436830 -1.289486 2.125942 24.242641
Spine 4.200903 18.306754 -24.542192
Head -13.131657 -21.378974 5.892414
LeftShoulder -7.378592 22.415124 18.651347
LeftArm 29.028997 5.625452 -63.334341
LeftForeArm 23.249112 -0.000000 30.089645
LeftHand -27.456786 0.000000 -1.433032
LeftHandThumb1 -26.253704 0.000000 33.147579
RightShoulder -10.060197 15.939672 -26.554885
RightArm 5.438734 1.899716 31.699515
RightForeArm -23.129542 -0.000000 54.332453
RightHand -2.375737 0.000000 -1.348775
RightHandThumb1 -24.326973 -0.000000 -32.862282
LeftUpLeg -85.456099 18.520676 -1.899780
LeftLeg 5.567195 -0.000000 -0.000000
LeftFoot 34.344691 33.348786 -12.303599
LeftToeBase 19.697951 -0.000000 -0.000000
RightUpLeg -5.187162 -8.937697 -20.784614
RightLeg 22.886982 -0.000000 -0.000000
RightFoot -15.115017 -11.632330 -12.077789
RightToeBase -4.601983 -0.000000 0.000000
287
root -3.080488 33.714005 1.432779 -0.875536 2.116535 23.634931
Spine 3.555756 18.016468 -24.090567
Head -12.969344 -21.349584 5.866365
LeftShoulder -7.742957 22.809565 18.619043
LeftArm 28.696488 6.271238 -64.009370
LeftForeArm 23.274816 -0.000000 29.900683
LeftHand -27.438219 0.000000 -1.747456
LeftHandThumb1 -26.253704 0.000000 33.147579
RightShoulder -10.321302 15.685174 -26.736101
RightArm 4.909025 1.752774 31.599300
RightForeArm -23.329993 -0.000000 54.885446
RightHand -2.296272 -0.000000 -1.504096
RightHandThumb1 -24.326973 -0.000000 -32.862282
LeftUpLeg -82.901540 17.665526 -1.444202
LeftLeg 5.599346 -0.000000 -0.000000
LeftFoot 33.375142 33.482664 -13.023874
LeftToeBase 19.314389 -0.000000 -0.000000
RightUpLeg -5.450378 -8.834158 -19.962686
RightLeg 22.515462 -0.000000 -0.000000
RightFoot -14.769777 -11.998057 -12.248200
RightToeBase -4.593951 -0.000000 0.000000
288
root -3.118512 33.697190 1.438119 -0.539864 2.144108 23.026741
Spine 3.029645 17.722657 -23.587372
Head -12.859733 -21.264813 5.810818
LeftShoulder -8.076412 23.219317 18.532566
LeftArm 28.403051 7.017667 -64.489158
LeftForeArm 23.199617 -0.000000 29.638700
LeftHand -27.292236 -0.000000 -1.841567
LeftHandThumb1 -26.253704 0.000000 33.147579
RightShoulder -10.587828 15.444034 -26.960430
RightArm 4.383736 1.696235 31.546362
RightForeArm -23.519893 -0.000000 55.528144
RightHand -2.414603 -0.000000 -1.346800
RightHandThumb1 -24.326973 -0.000000 -32.862282
LeftUpLeg -80.328231 16.751053 -0.946638
LeftLeg 5.773012 -0.000000 -0.000000
LeftFoot 32.305801 33.780456 -13.809667
LeftToeBase 18.565211 -0.000000 -0.000000
RightUpLeg -5.611427 -8.736631 -19.180186
RightLeg 22.161172 -0.000000 -0.000000
RightFoot -14.506081 -12.292541 -12.389150
RightToeBase -4.568332 -0.000000 0.000000
289
root -3.155245 33.678132 1.451730 -0.253363 2.140565 22.472624
Spine 2.511058 17.488404 -23.177344
Head -12.662487 -21.162963 5.810357
LeftShoulder -8.332851 23.667622 18.518451
LeftArm 28.211731 7.853573 -64.857910
LeftForeArm 22.876280 -0.000000 29.264296
LeftHand -27.370925 -0.000000 -1.711042
LeftHandThumb1 -26.253704 0.000000 33.147579
RightShoulder -10.798015 15.117059 -27.108243
RightArm 3.838348 1.820786 31.508367
RightForeArm -23.693869 0.000000 56.250815
RightHand -2.484862 -0.000000 -1.302208
RightHandThumb1 -24.326973 -0.000000 -32.862282
LeftUpLeg -77.758265 15.865131 -0.532568
LeftLeg 6.115445 -0.000000 -0.000000
LeftFoot 30.823544 34.034866 -14.995392
LeftToeBase 18.662010 -0.000000 -0.000000
RightUpLeg -5.742219 -8.612028 -18.475467
RightLeg 21.858465 -0.000000 -0.000000
RightFoot -14.356011 -12.510973 -12.474458
RightToeBase -4.377679 -0.000000 0.000000
290
root -3.184064 33.655826 1.476670 -0.000657 2.176550 21.913543
Spine 2.035458 17.240040 -22.702806
Head -12.443905 -21.033575 5.744495
LeftShoulder -8.594106 24.105508 18.406906
LeftArm 28.088433 8.739631 -65.084169
LeftForeArm 22.398227 -0.000000 28.833024
LeftHand -27.434834 0.000000 -1.784026
LeftHandThumb1 -26.253704 0.000000 33.147579
RightShoulder -11.079953 14.786369 -27.250178
RightArm 3.394757 2.036069 31.463476
RightForeArm -23.891441 -0.000000 57.013727
RightHand -2.511249 -0.000000 -1.306218
RightHandThumb1 -24.326973 -0.000000 -32.862282
LeftUpLeg -75.257645 14.909038 -0.116586
LeftLeg 6.715357 -0.000000 -0.000000
LeftFoot 29.410792 33.955810 -15.801277
LeftToeBase 17.392552 -0.000000 -0.000000
RightUpLeg -5.812680 -8.556743 -17.800430
RightLeg 21.584543 -0.000000 -0.000000
RightFoot -14.245732 -12.706627 -12.556557
RightToeBase -4.335679 -0.000000 0.000000
291
root -3.208763 33.629975 1.514780 0.167936 2.216710 21.318525
Spine 1.623018 17.007520 -22.144553
Head -12.172233 -20.895230 5.684012
LeftShoulder -8.806012 24.525300 18.293618
LeftArm 27.980130 9.670612 -65.292640
LeftForeArm 21.862599 0.000000 28.312284
LeftHand -27.411944 0.000000 -1.593434
LeftHandThumb1 -26.253704 0.000000 33.147579
RightShoulder -11.341749 14.319869 -27.356417
RightArm 3.017709 2.280470 31.377805
RightForeArm -23.966611 -0.000000 57.810962
RightHand -2.645035 -0.000000 -1.503431
RightHandThumb1 -24.326973 -0.000000 -32.862282
LeftUpLeg -72.784969 13.928003 0.315911
LeftLeg 7.603174 -0.000000 -0.000000
LeftFoot 27.943766 33.481712 -16.347456
LeftToeBase 15.171672 -0.000000 -0.000000
RightUpLeg -5.784791 -8.634379 -17.125398
RightLeg 21.315002 -0.000000 -0.000000
RightFoot -14.222910 -12.687491 -12.612486
RightToeBase -4.264067 -0.000000 0.000000
292
root -3.224858 33.606435 1.563859 0.276781 2.279542 20.779304
Spine 1.256719 16.779860 -21.645200
Head -11.868729 -20.806125 5.694876
LeftShoulder -8.985638 24.889556 18.185172
LeftArm 27.899930 10.672447 -65.416505
LeftForeArm 21.315161 -0.000000 27.723156
LeftHand -27.367026 -0.000000 -1.485331
LeftHandThumb1 -26.253704 0.000000 33.147579
RightShoulder -11.577335 13.829527 -27.391744
RightArm 2.693574 2.621823 31.299395
RightForeArm -23.849743 -0.000000 58.562932
RightHand -2.962772 -0.000000 -1.597923
RightHandThumb1 -24.326973 -0.000000 -32.862282
LeftUpLeg -70.274526 12.865882 0.801905
LeftLeg 8.713304 -0.000000 -0.000000
LeftFoot 25.894907 33.102426 -17.399383
LeftToeBase 13.230638 -0.000000 -0.000000
RightUpLeg -5.655750 -8.695895 -16.542950
RightLeg 21.020824 -0.000000 -0.000000
RightFoot -14.206267 -12.659348 -12.682752
RightToeBase -4.209301 -0.000000 0.000000
293
root -3.233097 33.585062 1.621220 0.361091 2.364235 20.265473
Spine 0.897977 16.538610 -21.139283
Head -11.511950 -20.727963 5.677847
LeftShoulder -9.157025 25.283820 17.994539
LeftArm 27.916840 11.736782 -65.349088
LeftForeArm 20.723698 -0.000000 27.116278
LeftHand -27.175233 -0.000000 -1.614832
LeftHandThumb1 -26.253704 0.000000 33.147579
RightShoulder -11.887913 13.409209 -27.332557
RightArm 2.493054 2.642715 30.973772
RightForeArm -23.672496 0.000000 59.326500
RightHand -3.106122 -0.000000 -2.043030
RightHandThumb1 -24.326973 -0.000000 -32.862282
LeftUpLeg -67.837192 11.743825 1.177735
LeftLeg 9.975420 -0.000000 -0.000000
LeftFoot 23.885481 32.844878 -18.234767
LeftToeBase 11.563187 -0.000000 -0.000000
RightUpLeg -5.490782 -8.697378 -16.014021
RightLeg 20.763006 -0.000000 -0.000000
RightFoot -14.192617 -12.677587 -12.665728
RightToeBase -4.201694 -0.000000 0.000000
294
root -3.239517 33.559624 1.685359 0.442370 2.462099 19.693461
Spine 0.530513 16.278112 -20.561612
Head -11.132398 -20.692504 5.596454
LeftShoulder -9.384460 25.633217 17.753169
LeftArm 28.012063 12.867775 -65.200788
LeftForeArm 20.284762 -0.000000 26.451597
LeftHand -26.908059 -0.000000 -1.966028
LeftHandThumb1 -26.253704 0.000000 33.147579
RightShoulder -12.160618 13.007560 -27.328530
RightArm 2.219646 2.963637 30.821502
RightForeArm -23.481496 -0.000000 60.033599
RightHand -2.746651 -0.000000 -1.827871
RightHandThumb1 -24.326973 -0.000000 -32.862282
LeftUpLeg -65.472481 10.590667 1.624807
LeftLeg 11.372537 -0.000000 -0.000000
LeftFoot 21.975654 32.477644 -19.057570
LeftToeBase 10.108641 -0.000000 -0.000000
RightUpLeg -5.325316 -8.792495 -15.434404
RightLeg 20.525855 -0.000000 -0.000000
RightFoot -14.255473 -12.555745 -12.618505
RightToeBase -4.134208 -0.000000 0.000000
295
root -3.239239 33.535031 1.749469 0.543601 2.555962 19.145325
Spine 0.146664 16.039186 -20.003871
Head -10.795562 -20.651491 5.494228
LeftShoulder -9.554716 25.904497 17.511030
LeftArm 28.135849 14.082109 -64.961665
LeftForeArm 19.810495 -0.000000 25.713378
LeftHand -26.720663 0.000000 -2.190250
LeftHandThumb1 -26.253704 0.000000 33.147579
RightShoulder -12.416581 12.658110 -27.373089
RightArm 1.806929 3.267478 30.754701
RightForeArm -23.560507 -0.000000 60.919953
RightHand -2.858962 0.000000 -1.998970
RightHandThumb1 -24.326973 -0.000000 -32.862282
LeftUpLeg -63.172057 9.384539 2.052482
LeftLeg 12.882745 -0.000000 -0.000000
LeftFoot 19.607496 32.671198 -20.244419
LeftToeBase 8.089473 -0.000000 -0.000000
RightUpLeg -5.200909 -8.864542 -14.898748
RightLeg 20.311826 -0.000000 -0.000000
RightFoot -14.299673 -12.591687 -12.492263
RightToeBase -3.950191 -0.000000 0.000000
